;Layer: Drill PTH
;EasyEDA v6.2.46, 2019-12-29T14:25:18--8:00
;8457726505304d7abae8730bc193fdbb,5a6822b0cf454a9ca4b08597ed48e8ef,10
;Gerber Generator version 0.2
M48
METRIC,LZ,000.000
;Holesize 1 = 1.000 METRIC
T01C1.000
;Holesize 2 = 1.200 METRIC
T02C1.200
%
G05
G90
T01
X+023368Y+011620
X+023368Y+014160
X+023368Y+016700
X+023368Y+019240
X+041286Y+019240
X+041286Y+016700
X+041286Y+014160
X+041286Y+011620
T02
X+008370Y+025229
X+008370Y+027769
X+010910Y+025229
X+010910Y+027769
X+013450Y+025229
X+013450Y+027769
X+015990Y+025229
X+015990Y+027769
X+018530Y+025229
X+018530Y+027769
X+021070Y+025229
X+021070Y+027769
X+023610Y+025229
X+023610Y+027769
X+026150Y+025229
X+026150Y+027769
X+028690Y+025229
X+028690Y+027769
X+031230Y+025229
X+031230Y+027769
X+033770Y+025229
X+033770Y+027769
X+036310Y+025229
X+036310Y+027769
X+038850Y+025229
X+038850Y+027769
X+041390Y+025229
X+041390Y+027769
X+043930Y+025229
X+043930Y+027769
X+046470Y+025229
X+046470Y+027769
X+049010Y+025229
X+049010Y+027769
X+051550Y+025229
X+051550Y+027769
X+054090Y+025229
X+054090Y+027769
X+056630Y+025229
X+056630Y+027769
M30
