G04 Layer: TopSilkLayer*
G04 EasyEDA v6.2.46, 2019-12-29T14:25:18--8:00*
G04 8457726505304d7abae8730bc193fdbb,5a6822b0cf454a9ca4b08597ed48e8ef,10*
G04 Gerber Generator version 0.2*
G04 Scale: 100 percent, Rotated: No, Reflected: No *
G04 Dimensions in millimeters *
G04 leading zeros omitted , absolute positions ,3 integer and 3 decimal *
%FSLAX33Y33*%
%MOMM*%
G90*
G71D02*

%ADD10C,0.254000*%
%ADD16C,0.203200*%
%ADD17C,0.152400*%

%LPD*%
G54D10*
G01X7100Y23959D02*
G01X7100Y29039D01*
G01X57900Y29039D01*
G01X57900Y23959D01*
G01X7100Y23959D01*
G01X7100Y26499D02*
G01X9640Y26499D01*
G01X9640Y23959D01*
G54D16*
G01X21772Y3665D02*
G01X21772Y2232D01*
G01X21772Y2984D02*
G01X21635Y3119D01*
G01X21501Y3187D01*
G01X21295Y3187D01*
G01X21160Y3119D01*
G01X21023Y2984D01*
G01X20955Y2778D01*
G01X20955Y2641D01*
G01X21023Y2438D01*
G01X21160Y2301D01*
G01X21295Y2232D01*
G01X21501Y2232D01*
G01X21635Y2301D01*
G01X21772Y2438D01*
G01X22222Y2778D02*
G01X23040Y2778D01*
G01X23040Y2915D01*
G01X22974Y3050D01*
G01X22905Y3119D01*
G01X22768Y3187D01*
G01X22565Y3187D01*
G01X22428Y3119D01*
G01X22291Y2984D01*
G01X22222Y2778D01*
G01X22222Y2641D01*
G01X22291Y2438D01*
G01X22428Y2301D01*
G01X22565Y2232D01*
G01X22768Y2232D01*
G01X22905Y2301D01*
G01X23040Y2438D01*
G01X23492Y3187D02*
G01X23492Y2232D01*
G01X23492Y2915D02*
G01X23695Y3119D01*
G01X23832Y3187D01*
G01X24036Y3187D01*
G01X24173Y3119D01*
G01X24241Y2915D01*
G01X24241Y2232D01*
G01X24241Y2915D02*
G01X24445Y3119D01*
G01X24582Y3187D01*
G01X24787Y3187D01*
G01X24922Y3119D01*
G01X24991Y2915D01*
G01X24991Y2232D01*
G01X25440Y3665D02*
G01X25509Y3596D01*
G01X25577Y3665D01*
G01X25509Y3733D01*
G01X25440Y3665D01*
G01X25509Y3187D02*
G01X25509Y2232D01*
G01X26845Y3187D02*
G01X26845Y2098D01*
G01X26776Y1892D01*
G01X26710Y1823D01*
G01X26573Y1755D01*
G01X26367Y1755D01*
G01X26233Y1823D01*
G01X26845Y2984D02*
G01X26710Y3119D01*
G01X26573Y3187D01*
G01X26367Y3187D01*
G01X26233Y3119D01*
G01X26096Y2984D01*
G01X26027Y2778D01*
G01X26027Y2641D01*
G01X26096Y2438D01*
G01X26233Y2301D01*
G01X26367Y2232D01*
G01X26573Y2232D01*
G01X26710Y2301D01*
G01X26845Y2438D01*
G01X27637Y3187D02*
G01X27500Y3119D01*
G01X27363Y2984D01*
G01X27294Y2778D01*
G01X27294Y2641D01*
G01X27363Y2438D01*
G01X27500Y2301D01*
G01X27637Y2232D01*
G01X27840Y2232D01*
G01X27978Y2301D01*
G01X28115Y2438D01*
G01X28181Y2641D01*
G01X28181Y2778D01*
G01X28115Y2984D01*
G01X27978Y3119D01*
G01X27840Y3187D01*
G01X27637Y3187D01*
G01X28836Y3665D02*
G01X28836Y2506D01*
G01X28905Y2301D01*
G01X29042Y2232D01*
G01X29177Y2232D01*
G01X28633Y3187D02*
G01X29108Y3187D01*
G01X30447Y2984D02*
G01X30309Y3119D01*
G01X30172Y3187D01*
G01X29969Y3187D01*
G01X29832Y3119D01*
G01X29695Y2984D01*
G01X29626Y2778D01*
G01X29626Y2641D01*
G01X29695Y2438D01*
G01X29832Y2301D01*
G01X29969Y2232D01*
G01X30172Y2232D01*
G01X30309Y2301D01*
G01X30447Y2438D01*
G01X30896Y3665D02*
G01X30896Y2232D01*
G01X30896Y2915D02*
G01X31099Y3119D01*
G01X31236Y3187D01*
G01X31440Y3187D01*
G01X31577Y3119D01*
G01X31645Y2915D01*
G01X31645Y2232D01*
G01X32095Y3665D02*
G01X32164Y3596D01*
G01X32232Y3665D01*
G01X32164Y3733D01*
G01X32095Y3665D01*
G01X32164Y3187D02*
G01X32164Y2232D01*
G01X33731Y3665D02*
G01X33731Y2232D01*
G01X33731Y3665D02*
G01X34345Y3665D01*
G01X34551Y3596D01*
G01X34617Y3528D01*
G01X34686Y3393D01*
G01X34686Y3256D01*
G01X34617Y3119D01*
G01X34551Y3050D01*
G01X34345Y2984D01*
G01X33731Y2984D01*
G01X34208Y2984D02*
G01X34686Y2232D01*
G01X35613Y3665D02*
G01X35613Y2232D01*
G01X35135Y3665D02*
G01X36090Y3665D01*
G01X37564Y3324D02*
G01X37495Y3462D01*
G01X37358Y3596D01*
G01X37223Y3665D01*
G01X36949Y3665D01*
G01X36814Y3596D01*
G01X36677Y3462D01*
G01X36609Y3324D01*
G01X36540Y3119D01*
G01X36540Y2778D01*
G01X36609Y2575D01*
G01X36677Y2438D01*
G01X36814Y2301D01*
G01X36949Y2232D01*
G01X37223Y2232D01*
G01X37358Y2301D01*
G01X37495Y2438D01*
G01X37564Y2575D01*
G01X39240Y3937D02*
G01X38013Y1755D01*
G01X40713Y3324D02*
G01X40645Y3462D01*
G01X40510Y3596D01*
G01X40373Y3665D01*
G01X40101Y3665D01*
G01X39964Y3596D01*
G01X39827Y3462D01*
G01X39758Y3324D01*
G01X39692Y3119D01*
G01X39692Y2778D01*
G01X39758Y2575D01*
G01X39827Y2438D01*
G01X39964Y2301D01*
G01X40101Y2232D01*
G01X40373Y2232D01*
G01X40510Y2301D01*
G01X40645Y2438D01*
G01X40713Y2575D01*
G01X40713Y2778D01*
G01X40373Y2778D02*
G01X40713Y2778D01*
G01X41163Y3665D02*
G01X41163Y2232D01*
G01X41163Y3665D02*
G01X41777Y3665D01*
G01X41981Y3596D01*
G01X42049Y3528D01*
G01X42118Y3393D01*
G01X42118Y3187D01*
G01X42049Y3050D01*
G01X41981Y2984D01*
G01X41777Y2915D01*
G01X41163Y2915D01*
G01X43522Y3462D02*
G01X43385Y3596D01*
G01X43182Y3665D01*
G01X42910Y3665D01*
G01X42705Y3596D01*
G01X42567Y3462D01*
G01X42567Y3324D01*
G01X42636Y3187D01*
G01X42705Y3119D01*
G01X42842Y3050D01*
G01X43251Y2915D01*
G01X43385Y2847D01*
G01X43454Y2778D01*
G01X43522Y2641D01*
G01X43522Y2438D01*
G01X43385Y2301D01*
G01X43182Y2232D01*
G01X42910Y2232D01*
G01X42705Y2301D01*
G01X42567Y2438D01*
G01X45773Y2984D02*
G01X45704Y3119D01*
G01X45501Y3187D01*
G01X45295Y3187D01*
G01X45092Y3119D01*
G01X45024Y2984D01*
G01X45092Y2847D01*
G01X45227Y2778D01*
G01X45567Y2710D01*
G01X45704Y2641D01*
G01X45773Y2506D01*
G01X45773Y2438D01*
G01X45704Y2301D01*
G01X45501Y2232D01*
G01X45295Y2232D01*
G01X45092Y2301D01*
G01X45024Y2438D01*
G01X46222Y3187D02*
G01X46222Y1755D01*
G01X46222Y2984D02*
G01X46360Y3119D01*
G01X46494Y3187D01*
G01X46700Y3187D01*
G01X46837Y3119D01*
G01X46972Y2984D01*
G01X47040Y2778D01*
G01X47040Y2641D01*
G01X46972Y2438D01*
G01X46837Y2301D01*
G01X46700Y2232D01*
G01X46494Y2232D01*
G01X46360Y2301D01*
G01X46222Y2438D01*
G01X47490Y3665D02*
G01X47490Y2232D01*
G01X47942Y3665D02*
G01X48008Y3596D01*
G01X48077Y3665D01*
G01X48008Y3733D01*
G01X47942Y3665D01*
G01X48008Y3187D02*
G01X48008Y2232D01*
G01X48732Y3665D02*
G01X48732Y2506D01*
G01X48801Y2301D01*
G01X48935Y2232D01*
G01X49072Y2232D01*
G01X48526Y3187D02*
G01X49004Y3187D01*
G01X49728Y3665D02*
G01X49728Y2506D01*
G01X49796Y2301D01*
G01X49931Y2232D01*
G01X50068Y2232D01*
G01X49522Y3187D02*
G01X49999Y3187D01*
G01X50518Y2778D02*
G01X51335Y2778D01*
G01X51335Y2915D01*
G01X51269Y3050D01*
G01X51201Y3119D01*
G01X51064Y3187D01*
G01X50858Y3187D01*
G01X50723Y3119D01*
G01X50586Y2984D01*
G01X50518Y2778D01*
G01X50518Y2641D01*
G01X50586Y2438D01*
G01X50723Y2301D01*
G01X50858Y2232D01*
G01X51064Y2232D01*
G01X51201Y2301D01*
G01X51335Y2438D01*
G01X51788Y3187D02*
G01X51788Y2232D01*
G01X51788Y2778D02*
G01X51854Y2984D01*
G01X51991Y3119D01*
G01X52128Y3187D01*
G01X52331Y3187D01*
G01X53832Y3187D02*
G01X54241Y2232D01*
G01X54650Y3187D02*
G01X54241Y2232D01*
G01X55509Y3665D02*
G01X55306Y3596D01*
G01X55168Y3393D01*
G01X55100Y3050D01*
G01X55100Y2847D01*
G01X55168Y2506D01*
G01X55306Y2301D01*
G01X55509Y2232D01*
G01X55646Y2232D01*
G01X55849Y2301D01*
G01X55986Y2506D01*
G01X56055Y2847D01*
G01X56055Y3050D01*
G01X55986Y3393D01*
G01X55849Y3596D01*
G01X55646Y3665D01*
G01X55509Y3665D01*
G01X56573Y2575D02*
G01X56504Y2506D01*
G01X56573Y2438D01*
G01X56642Y2506D01*
G01X56573Y2575D01*
G01X57091Y3393D02*
G01X57228Y3462D01*
G01X57431Y3665D01*
G01X57431Y2232D01*
G54D17*
G01X7755Y22887D02*
G01X7755Y21798D01*
G01X8481Y22887D02*
G01X8481Y21798D01*
G01X7755Y22369D02*
G01X8481Y22369D01*
G01X8824Y22682D02*
G01X8928Y22733D01*
G01X9086Y22887D01*
G01X9086Y21798D01*
M00*
M02*
