G04 Layer: BottomSilkLayer*
G04 EasyEDA v6.2.46, 2019-12-29T14:25:18--8:00*
G04 8457726505304d7abae8730bc193fdbb,5a6822b0cf454a9ca4b08597ed48e8ef,10*
G04 Gerber Generator version 0.2*
G04 Scale: 100 percent, Rotated: No, Reflected: No *
G04 Dimensions in millimeters *
G04 leading zeros omitted , absolute positions ,3 integer and 3 decimal *
%FSLAX33Y33*%
%MOMM*%
G90*
G71D02*

%ADD10C,0.254000*%
%ADD16C,0.203200*%
%ADD17C,0.152400*%

%LPD*%
G54D10*
G01X22733Y17970D02*
G01X22098Y17335D01*
G01X22098Y16065D01*
G01X22733Y15430D01*
G01X24003Y15430D02*
G01X24638Y14795D01*
G01X24638Y13525D01*
G01X24003Y12890D01*
G01X22733Y15430D02*
G01X22098Y14795D01*
G01X22098Y13525D01*
G01X22733Y12890D01*
G01X24003Y20510D02*
G01X22733Y20510D01*
G01X24003Y12890D02*
G01X24638Y12255D01*
G01X24638Y10985D01*
G01X24003Y10350D01*
G01X22733Y12890D02*
G01X22098Y12255D01*
G01X22098Y10985D01*
G01X22733Y10350D01*
G01X24003Y10350D02*
G01X22733Y10350D01*
G01X24003Y20510D02*
G01X24638Y19875D01*
G01X24638Y18605D01*
G01X24003Y17970D01*
G01X22733Y20510D02*
G01X22098Y19875D01*
G01X22098Y18605D01*
G01X22733Y17970D01*
G01X24003Y17970D02*
G01X24638Y17335D01*
G01X24638Y16065D01*
G01X24003Y15430D01*
G01X41921Y12890D02*
G01X42556Y13525D01*
G01X42556Y14795D01*
G01X41921Y15430D01*
G01X40651Y15430D02*
G01X40016Y16065D01*
G01X40016Y17335D01*
G01X40651Y17970D01*
G01X41921Y15430D02*
G01X42556Y16065D01*
G01X42556Y17335D01*
G01X41921Y17970D01*
G01X40651Y10350D02*
G01X41921Y10350D01*
G01X40651Y17970D02*
G01X40016Y18605D01*
G01X40016Y19875D01*
G01X40651Y20510D01*
G01X41921Y17970D02*
G01X42556Y18605D01*
G01X42556Y19875D01*
G01X41921Y20510D01*
G01X40651Y20510D02*
G01X41921Y20510D01*
G01X40651Y10350D02*
G01X40016Y10985D01*
G01X40016Y12255D01*
G01X40651Y12890D01*
G01X41921Y10350D02*
G01X42556Y10985D01*
G01X42556Y12255D01*
G01X41921Y12890D01*
G01X40651Y12890D02*
G01X40016Y13525D01*
G01X40016Y14795D01*
G01X40651Y15430D01*
G54D17*
G01X24258Y9320D02*
G01X24258Y8230D01*
G01X23532Y9320D02*
G01X23532Y8230D01*
G01X24258Y8802D02*
G01X23532Y8802D01*
G01X23136Y9061D02*
G01X23136Y9114D01*
G01X23085Y9218D01*
G01X23031Y9269D01*
G01X22927Y9320D01*
G01X22722Y9320D01*
G01X22617Y9269D01*
G01X22564Y9218D01*
G01X22513Y9114D01*
G01X22513Y9010D01*
G01X22564Y8906D01*
G01X22668Y8748D01*
G01X23189Y8230D01*
G01X22460Y8230D01*
G01X42195Y9334D02*
G01X42195Y8244D01*
G01X41469Y9334D02*
G01X41469Y8244D01*
G01X42195Y8816D02*
G01X41469Y8816D01*
G01X41022Y9334D02*
G01X40450Y9334D01*
G01X40760Y8920D01*
G01X40605Y8920D01*
G01X40501Y8867D01*
G01X40450Y8816D01*
G01X40397Y8661D01*
G01X40397Y8557D01*
G01X40450Y8399D01*
G01X40554Y8295D01*
G01X40709Y8244D01*
G01X40864Y8244D01*
G01X41022Y8295D01*
G01X41073Y8348D01*
G01X41126Y8453D01*
G54D16*
G01X25175Y22733D02*
G01X25175Y21301D01*
G01X25175Y22733D02*
G01X24561Y22733D01*
G01X24357Y22664D01*
G01X24289Y22596D01*
G01X24220Y22460D01*
G01X24220Y22323D01*
G01X24289Y22187D01*
G01X24357Y22119D01*
G01X24561Y22051D01*
G01X25175Y22051D01*
G01X24698Y22051D02*
G01X24220Y21301D01*
G01X23293Y22733D02*
G01X23293Y21301D01*
G01X23770Y22733D02*
G01X22816Y22733D01*
G01X21343Y22392D02*
G01X21411Y22528D01*
G01X21548Y22664D01*
G01X21684Y22733D01*
G01X21957Y22733D01*
G01X22093Y22664D01*
G01X22229Y22528D01*
G01X22298Y22392D01*
G01X22366Y22187D01*
G01X22366Y21846D01*
G01X22298Y21642D01*
G01X22229Y21505D01*
G01X22093Y21369D01*
G01X21957Y21301D01*
G01X21684Y21301D01*
G01X21548Y21369D01*
G01X21411Y21505D01*
G01X21343Y21642D01*
G01X42179Y22392D02*
G01X42247Y22529D01*
G01X42384Y22664D01*
G01X42522Y22733D01*
G01X42793Y22733D01*
G01X42931Y22664D01*
G01X43065Y22529D01*
G01X43134Y22392D01*
G01X43202Y22186D01*
G01X43202Y21846D01*
G01X43134Y21643D01*
G01X43065Y21506D01*
G01X42931Y21369D01*
G01X42793Y21300D01*
G01X42522Y21300D01*
G01X42384Y21369D01*
G01X42247Y21506D01*
G01X42179Y21643D01*
G01X42179Y21846D01*
G01X42522Y21846D02*
G01X42179Y21846D01*
G01X41729Y22733D02*
G01X41729Y21300D01*
G01X41729Y22733D02*
G01X41117Y22733D01*
G01X40911Y22664D01*
G01X40843Y22595D01*
G01X40774Y22461D01*
G01X40774Y22255D01*
G01X40843Y22120D01*
G01X40911Y22052D01*
G01X41117Y21983D01*
G01X41729Y21983D01*
G01X39370Y22529D02*
G01X39507Y22664D01*
G01X39712Y22733D01*
G01X39984Y22733D01*
G01X40190Y22664D01*
G01X40325Y22529D01*
G01X40325Y22392D01*
G01X40256Y22255D01*
G01X40190Y22186D01*
G01X40053Y22120D01*
G01X39644Y21983D01*
G01X39507Y21915D01*
G01X39438Y21846D01*
G01X39370Y21709D01*
G01X39370Y21506D01*
G01X39507Y21369D01*
G01X39712Y21300D01*
G01X39984Y21300D01*
G01X40190Y21369D01*
G01X40325Y21506D01*
G01X27561Y19331D02*
G01X27653Y19423D01*
G01X27790Y19469D01*
G01X27973Y19469D01*
G01X28107Y19423D01*
G01X28199Y19331D01*
G01X28199Y19240D01*
G01X28153Y19149D01*
G01X28107Y19105D01*
G01X28016Y19060D01*
G01X27744Y18968D01*
G01X27653Y18923D01*
G01X27607Y18877D01*
G01X27561Y18785D01*
G01X27561Y18651D01*
G01X27653Y18559D01*
G01X27790Y18514D01*
G01X27973Y18514D01*
G01X28107Y18559D01*
G01X28199Y18651D01*
G01X26581Y19240D02*
G01X26626Y19331D01*
G01X26718Y19423D01*
G01X26807Y19469D01*
G01X26990Y19469D01*
G01X27081Y19423D01*
G01X27173Y19331D01*
G01X27216Y19240D01*
G01X27261Y19105D01*
G01X27261Y18877D01*
G01X27216Y18740D01*
G01X27173Y18651D01*
G01X27081Y18559D01*
G01X26990Y18514D01*
G01X26807Y18514D01*
G01X26718Y18559D01*
G01X26626Y18651D01*
G01X26581Y18740D01*
G01X26281Y19469D02*
G01X26281Y18514D01*
G01X26281Y18514D02*
G01X25735Y18514D01*
G01X27698Y16695D02*
G01X27790Y16786D01*
G01X27927Y16830D01*
G01X28110Y16830D01*
G01X28244Y16786D01*
G01X28336Y16695D01*
G01X28336Y16604D01*
G01X28290Y16512D01*
G01X28244Y16466D01*
G01X28153Y16421D01*
G01X27881Y16332D01*
G01X27790Y16286D01*
G01X27744Y16240D01*
G01X27698Y16149D01*
G01X27698Y16012D01*
G01X27790Y15920D01*
G01X27927Y15877D01*
G01X28110Y15877D01*
G01X28244Y15920D01*
G01X28336Y16012D01*
G01X27399Y16830D02*
G01X27399Y15877D01*
G01X27399Y16830D02*
G01X27081Y16830D01*
G01X26944Y16786D01*
G01X26855Y16695D01*
G01X26809Y16604D01*
G01X26764Y16466D01*
G01X26764Y16240D01*
G01X26809Y16103D01*
G01X26855Y16012D01*
G01X26944Y15920D01*
G01X27081Y15877D01*
G01X27399Y15877D01*
G01X26101Y16830D02*
G01X26464Y15877D01*
G01X26101Y16830D02*
G01X25735Y15877D01*
G01X26327Y16195D02*
G01X25872Y16195D01*
G01X26852Y14193D02*
G01X27307Y14193D01*
G01X27353Y13784D01*
G01X27307Y13830D01*
G01X27172Y13876D01*
G01X27035Y13876D01*
G01X26898Y13830D01*
G01X26807Y13738D01*
G01X26761Y13601D01*
G01X26761Y13512D01*
G01X26807Y13375D01*
G01X26898Y13284D01*
G01X27035Y13238D01*
G01X27172Y13238D01*
G01X27307Y13284D01*
G01X27353Y13329D01*
G01X27399Y13421D01*
G01X26461Y14193D02*
G01X26098Y13238D01*
G01X25735Y14193D02*
G01X26098Y13238D01*
G01X27609Y11582D02*
G01X27653Y11673D01*
G01X27744Y11765D01*
G01X27835Y11811D01*
G01X28018Y11811D01*
G01X28107Y11765D01*
G01X28199Y11673D01*
G01X28244Y11582D01*
G01X28290Y11447D01*
G01X28290Y11219D01*
G01X28244Y11082D01*
G01X28199Y10993D01*
G01X28107Y10901D01*
G01X28018Y10855D01*
G01X27835Y10855D01*
G01X27744Y10901D01*
G01X27653Y10993D01*
G01X27609Y11082D01*
G01X27609Y11219D01*
G01X27835Y11219D02*
G01X27609Y11219D01*
G01X27307Y11811D02*
G01X27307Y10855D01*
G01X27307Y11811D02*
G01X26672Y10855D01*
G01X26672Y11811D02*
G01X26672Y10855D01*
G01X26372Y11811D02*
G01X26372Y10855D01*
G01X26372Y11811D02*
G01X26055Y11811D01*
G01X25918Y11765D01*
G01X25826Y11673D01*
G01X25781Y11582D01*
G01X25735Y11447D01*
G01X25735Y11219D01*
G01X25781Y11082D01*
G01X25826Y10993D01*
G01X25918Y10901D01*
G01X26055Y10855D01*
G01X26372Y10855D01*
G01X38940Y19431D02*
G01X38940Y18475D01*
G01X39258Y19431D02*
G01X38620Y19431D01*
G01X38320Y19431D02*
G01X37685Y18475D01*
G01X37685Y19431D02*
G01X38320Y18475D01*
G01X39258Y16764D02*
G01X39258Y15808D01*
G01X39258Y16764D02*
G01X38849Y16764D01*
G01X38712Y16718D01*
G01X38666Y16672D01*
G01X38620Y16581D01*
G01X38620Y16489D01*
G01X38666Y16400D01*
G01X38712Y16355D01*
G01X38849Y16309D01*
G01X39258Y16309D01*
G01X38940Y16309D02*
G01X38620Y15808D01*
G01X38320Y16764D02*
G01X37685Y15808D01*
G01X37685Y16764D02*
G01X38320Y15808D01*
G01X38577Y14122D02*
G01X38620Y14213D01*
G01X38712Y14305D01*
G01X38803Y14351D01*
G01X38986Y14351D01*
G01X39075Y14305D01*
G01X39166Y14213D01*
G01X39212Y14122D01*
G01X39258Y13987D01*
G01X39258Y13759D01*
G01X39212Y13622D01*
G01X39166Y13533D01*
G01X39075Y13441D01*
G01X38986Y13395D01*
G01X38803Y13395D01*
G01X38712Y13441D01*
G01X38620Y13533D01*
G01X38577Y13622D01*
G01X38577Y13759D01*
G01X38803Y13759D02*
G01X38577Y13759D01*
G01X38275Y14351D02*
G01X38275Y13395D01*
G01X38275Y14351D02*
G01X37640Y13395D01*
G01X37640Y14351D02*
G01X37640Y13395D01*
G01X37340Y14351D02*
G01X37340Y13395D01*
G01X37340Y14351D02*
G01X37023Y14351D01*
G01X36885Y14305D01*
G01X36794Y14213D01*
G01X36748Y14122D01*
G01X36703Y13987D01*
G01X36703Y13759D01*
G01X36748Y13622D01*
G01X36794Y13533D01*
G01X36885Y13441D01*
G01X37023Y13395D01*
G01X37340Y13395D01*
G01X38712Y12064D02*
G01X39166Y12064D01*
G01X39212Y11656D01*
G01X39166Y11701D01*
G01X39032Y11744D01*
G01X38895Y11744D01*
G01X38757Y11701D01*
G01X38666Y11610D01*
G01X38620Y11473D01*
G01X38620Y11381D01*
G01X38666Y11247D01*
G01X38757Y11155D01*
G01X38895Y11109D01*
G01X39032Y11109D01*
G01X39166Y11155D01*
G01X39212Y11201D01*
G01X39258Y11292D01*
G01X38321Y12064D02*
G01X37957Y11109D01*
G01X37594Y12064D02*
G01X37957Y11109D01*
M00*
M02*
